HIERARCHY
ROOT Hips
{
	OFFSET 0.00000 0.00000 0.00000
	CHANNELS 6 Xposition Yposition Zposition Zrotation Yrotation Xrotation 
	JOINT LHipJoint
	{
		OFFSET 0 0 0
		CHANNELS 3 Zrotation Yrotation Xrotation
		JOINT LeftUpLeg
		{
			OFFSET 1.58895 -1.83665 0.71753
			CHANNELS 3 Zrotation Yrotation Xrotation
			JOINT LeftLeg
			{
				OFFSET 2.50528 -6.88321 0.00000
				CHANNELS 3 Zrotation Yrotation Xrotation
				JOINT LeftFoot
				{
					OFFSET 2.63244 -7.23257 0.00000
					CHANNELS 3 Zrotation Yrotation Xrotation
					JOINT LeftToeBase
					{
						OFFSET 0.23691 -0.65090 1.72750
						CHANNELS 3 Zrotation Yrotation Xrotation
						End Site
						{
							OFFSET 0.00000 -0.00000 0.92561
						}
					}
				}
			}
		}
	}
	JOINT RHipJoint
	{
		OFFSET 0 0 0
		CHANNELS 3 Zrotation Yrotation Xrotation
		JOINT RightUpLeg
		{
			OFFSET -1.51435 -1.83665 0.71753
			CHANNELS 3 Zrotation Yrotation Xrotation
			JOINT RightLeg
			{
				OFFSET -2.54551 -6.99375 0.00000
				CHANNELS 3 Zrotation Yrotation Xrotation
				JOINT RightFoot
				{
					OFFSET -2.66027 -7.30903 0.00000
					CHANNELS 3 Zrotation Yrotation Xrotation
					JOINT RightToeBase
					{
						OFFSET -0.22981 -0.63138 2.03959
						CHANNELS 3 Zrotation Yrotation Xrotation
						End Site
						{
							OFFSET -0.00000 -0.00000 1.07060
						}
					}
				}
			}
		}
	}
	JOINT LowerBack
	{
		OFFSET 0 0 0
		CHANNELS 3 Zrotation Yrotation Xrotation
		JOINT Spine
		{
			OFFSET -0.02651 1.86275 -0.11152
			CHANNELS 3 Zrotation Yrotation Xrotation
			JOINT Spine1
			{
				OFFSET 0.01019 1.86224 0.04087
				CHANNELS 3 Zrotation Yrotation Xrotation
				JOINT Neck
				{
					OFFSET 0 0 0
					CHANNELS 3 Zrotation Yrotation Xrotation
					JOINT Neck1
					{
						OFFSET -0.01926 1.80512 0.08867
						CHANNELS 3 Zrotation Yrotation Xrotation
						JOINT Head
						{
							OFFSET 0.05516 1.76451 -0.38475
							CHANNELS 3 Zrotation Yrotation Xrotation
							End Site
							{
								OFFSET 0.01592 1.82587 -0.14001
							}
						}
					}
				}
				JOINT LeftShoulder
				{
					OFFSET 0 0 0
					CHANNELS 3 Zrotation Yrotation Xrotation
					JOINT LeftArm
					{
						OFFSET 3.47116 1.51376 0.14491
						CHANNELS 3 Zrotation Yrotation Xrotation
						JOINT LeftForeArm
						{
							OFFSET 4.78095 -0.00000 0.00000
							CHANNELS 3 Zrotation Yrotation Xrotation
							JOINT LeftHand
							{
								OFFSET 3.58615 -0.00000 -0.00000
								CHANNELS 3 Zrotation Yrotation Xrotation
								JOINT LeftFingerBase
								{
									OFFSET 0 0 0
									CHANNELS 3 Zrotation Yrotation Xrotation
									JOINT LeftHandIndex1
									{
										OFFSET 0.65981 -0.00000 0.00000
										CHANNELS 3 Zrotation Yrotation Xrotation
										End Site
										{
											OFFSET 0.53196 -0.00000 0.00000
										}
									}
								}
								JOINT LThumb
								{
									OFFSET 0 0 0
									CHANNELS 3 Zrotation Yrotation Xrotation
									End Site
									{
										OFFSET 0.54008 -0.00000 0.54008
									}
								}
							}
						}
					}
				}
				JOINT RightShoulder
				{
					OFFSET 0 0 0
					CHANNELS 3 Zrotation Yrotation Xrotation
					JOINT RightArm
					{
						OFFSET -3.31725 1.61216 0.35156
						CHANNELS 3 Zrotation Yrotation Xrotation
						JOINT RightForeArm
						{
							OFFSET -4.48913 -0.00000 0.00000
							CHANNELS 3 Zrotation Yrotation Xrotation
							JOINT RightHand
							{
								OFFSET -3.70510 -0.00000 0.00000
								CHANNELS 3 Zrotation Yrotation Xrotation
								JOINT RightFingerBase
								{
									OFFSET 0 0 0
									CHANNELS 3 Zrotation Yrotation Xrotation
									JOINT RightHandIndex1
									{
										OFFSET -0.44914 -0.00000 0.00000
										CHANNELS 3 Zrotation Yrotation Xrotation
										End Site
										{
											OFFSET -0.36211 -0.00000 0.00000
										}
									}
								}
								JOINT RThumb
								{
									OFFSET 0 0 0
									CHANNELS 3 Zrotation Yrotation Xrotation
									End Site
									{
										OFFSET -0.36763 -0.00000 0.36763
									}
								}
							}
						}
					}
				}
			}
		}
	}
}
MOTION
Frames: 8
Frame Time: .0083333
-0.6089 18.707 5.5553 0 0 0 0 0 0 -21 0 0 0 0 0 0 0 0 0 0 0 0 0 0 21 0 0 0 0 0 0 0 0 0 0 0 0 0 0 0 0 0 0 0 0 0 0 -16 0 0 21 0 0 11 0 0 0 -8 0 0 0 0 0 0 0 0 0 0 0 0 0 0 0 0 0 0 0 0 8 0 0 0 0 0 0 0 0 0 0 0 0 0 0 0 0 0
-0.6089 18.7070 5.5553 -1.2813 -5.3505 2.6610 0.0000 0.0000 0.0000 -14.1032 -8.7000 -1.1970 1.1669 6.8573 19.2933 1.7929 9.5616 -30.2764 7.7192 -15.9088 -51.5448 0.0000 0.0000 0.0000 0.0000 0.0000 0.0000 0.0000 0.0000 0.0000 -0.0000 -0.0000 0.0000 -0.0000 -0.0000 0.0000 -0.6416 0.8894 -0.4931 0.6000 1.1913 -2.1778 0.9592 0.6124 -1.9806 -2.2647 -2.2342 -12.3185 3.8585 -3.8874 29.5725 1.2947 -1.5349 11.8296 -0.0000 -0.0000 0.0000 -89.7064 11.6291 32.3909 19.6544 -30.2237 -5.3563 -0.0000 -0.0000 7.0473 10.2176 -31.8593 -5.4348 -7.1250 0.0000 -0.0000 -12.1219 -1.6599 12.7537 -0.0000 -0.0000 0.0000 89.1751 -17.0368 27.2511 -23.5723 34.7087 -7.4616 0.0000 0.0000 22.9583 -7.5953 -34.3630 4.3042 7.1250 -0.0000 -0.0000 30.3070 -61.9947 -13.1803
-0.6089 18.7068 5.5545 -1.2918 -5.3470 2.6547 0.0000 0.0000 0.0000 -14.0849 -8.6781 -1.2176 1.1702 6.8667 19.3211 1.7919 9.5353 -30.2519 7.7159 -15.9063 -51.5330 0.0000 0.0000 0.0000 0.0000 0.0000 0.0000 0.0000 0.0000 0.0000 -0.0000 -0.0000 0.0000 -0.0000 -0.0000 0.0000 -0.6140 0.9006 -0.4821 0.5938 1.2062 -2.1830 0.9369 0.6194 -1.9917 -2.2299 -2.2334 -12.3102 3.8389 -3.8883 29.5597 1.2812 -1.5341 11.8216 0.0000 0.0000 0.0000 -89.6986 11.6464 32.3752 19.6702 -30.2430 -5.3643 -0.0000 -0.0000 7.0562 10.2619 -31.9505 -5.4726 -7.1250 0.0000 -0.0000 -12.1034 -1.7552 12.7530 0.0000 0.0000 0.0000 89.1734 -17.0366 27.2297 -23.5452 34.6796 -7.4462 0.0000 0.0000 22.9748 -7.5873 -34.2314 4.2853 7.1250 -0.0000 -0.0000 30.1774 -61.8810 -13.0368
-0.6083 18.7064 5.5538 -1.2931 -5.3257 2.6514 0.0000 0.0000 0.0000 -14.0826 -8.6845 -1.2290 1.1724 6.8728 19.3391 1.7928 9.5174 -30.2459 7.7262 -15.9141 -51.5704 0.0000 0.0000 0.0000 0.0000 0.0000 0.0000 0.0000 0.0000 0.0000 -0.0000 -0.0000 0.0000 -0.0000 -0.0000 0.0000 -0.5890 0.9054 -0.4850 0.5821 1.2126 -2.1748 0.9110 0.6220 -1.9810 -2.1985 -2.2245 -12.3113 3.8472 -3.8838 29.5204 1.2792 -1.5277 11.8057 -0.0000 -0.0000 0.0000 -89.6962 11.6433 32.3368 19.6939 -30.2718 -5.3762 -0.0000 -0.0000 7.0550 10.2625 -31.9821 -5.4777 -7.1250 0.0000 -0.0000 -12.1053 -1.7862 12.7616 -0.0000 -0.0000 0.0000 89.1358 -17.0288 27.2653 -23.5543 34.6894 -7.4514 0.0000 0.0000 22.9551 -7.5499 -34.2312 4.2640 7.1250 -0.0000 -0.0000 30.2155 -61.8714 -13.0481
-0.6083 18.7064 5.5534 -1.3061 -5.3011 2.6498 0.0000 0.0000 0.0000 -14.0693 -8.7004 -1.2309 1.1739 6.8769 19.3513 1.7907 9.5248 -30.2375 7.7515 -15.9334 -51.6625 0.0000 0.0000 0.0000 0.0000 0.0000 0.0000 0.0000 0.0000 0.0000 -0.0000 -0.0000 0.0000 -0.0000 -0.0000 0.0000 -0.5622 0.9068 -0.4962 0.5812 1.2147 -2.1610 0.8954 0.6224 -1.9600 -2.2036 -2.2278 -12.3339 3.8589 -3.8892 29.4958 1.2833 -1.5291 11.8013 0.0000 0.0000 0.0000 -89.7047 11.6138 32.3061 19.7068 -30.2875 -5.3827 -0.0000 -0.0000 7.0429 10.2194 -31.9229 -5.4454 -7.1250 0.0000 -0.0000 -12.1254 -1.7224 12.7704 0.0000 0.0000 0.0000 89.1453 -17.0116 27.2294 -23.5640 34.6998 -7.4569 0.0000 0.0000 22.9557 -7.6354 -34.2537 4.3151 7.1250 -0.0000 -0.0000 30.1513 -61.9119 -13.0465
-0.6085 18.7068 5.5528 -1.3094 -5.3007 2.6530 0.0000 0.0000 0.0000 -14.0654 -8.7033 -1.2327 1.1739 6.8770 19.3515 1.7875 9.5493 -30.2339 7.7557 -15.9366 -51.6781 0.0000 0.0000 0.0000 0.0000 0.0000 0.0000 0.0000 0.0000 0.0000 -0.0000 -0.0000 0.0000 -0.0000 -0.0000 0.0000 -0.5561 0.9059 -0.5125 0.5819 1.2136 -2.1520 0.8930 0.6217 -1.9415 -2.2083 -2.2257 -12.3680 3.8579 -3.8844 29.4999 1.2841 -1.5270 11.8098 0.0000 0.0000 0.0000 -89.7125 11.5638 32.2846 19.6950 -30.2731 -5.3767 -0.0000 -0.0000 7.0252 10.2190 -31.8425 -5.4329 -7.1250 0.0000 -0.0000 -12.1200 -1.6437 12.7482 0.0000 0.0000 0.0000 89.1669 -16.9560 27.2027 -23.5367 34.6705 -7.4414 0.0000 0.0000 22.9422 -7.6554 -34.2669 4.3279 7.1250 -0.0000 -0.0000 30.1447 -61.9282 -13.0550
-0.6091 18.7067 5.5525 -1.3029 -5.3168 2.6431 0.0000 0.0000 0.0000 -14.0727 -8.7023 -1.2181 1.1731 6.8749 19.3454 1.7923 9.5490 -30.2642 7.7415 -15.9258 -51.6261 0.0000 0.0000 0.0000 0.0000 0.0000 0.0000 0.0000 0.0000 0.0000 -0.0000 -0.0000 0.0000 -0.0000 -0.0000 0.0000 -0.5658 0.9024 -0.5317 0.5798 1.2087 -2.1416 0.8969 0.6193 -1.9201 -2.2036 -2.2039 -12.3429 3.8658 -3.8552 29.4701 1.2903 -1.5131 11.7918 0.0000 -0.0000 0.0000 -89.7148 11.5331 32.2482 19.6908 -30.2680 -5.3746 -0.0000 -0.0000 7.0174 10.2341 -31.7791 -5.4315 -7.1250 0.0000 -0.0000 -12.1072 -1.5837 12.7216 0.0000 -0.0000 0.0000 89.1353 -16.9239 27.2754 -23.5353 34.6690 -7.4406 0.0000 0.0000 22.8584 -7.5083 -34.3972 4.2582 7.1250 -0.0000 -0.0000 30.4319 -62.0018 -13.2453
-0.6101 18.7064 5.5526 -1.2926 -5.3242 2.6307 0.0000 0.0000 0.0000 -14.0807 -8.6865 -1.2074 1.1722 6.8724 19.3378 1.7945 9.5317 -30.2664 7.7448 -15.9283 -51.6380 0.0000 0.0000 0.0000 0.0000 0.0000 0.0000 0.0000 0.0000 0.0000 -0.0000 -0.0000 0.0000 -0.0000 -0.0000 0.0000 -0.5791 0.9030 -0.5468 0.5721 1.2094 -2.1386 0.8966 0.6197 -1.9086 -2.1667 -2.1788 -12.2815 3.8465 -3.8204 29.4174 1.2816 -1.4970 11.7557 0.0000 -0.0000 0.0000 -89.6884 11.5318 32.2596 19.6989 -30.2778 -5.3787 -0.0000 -0.0000 6.9843 10.2127 -31.7602 -5.4171 -7.1250 0.0000 -0.0000 -12.1179 -1.5623 12.7289 0.0000 -0.0000 0.0000 89.0947 -16.9438 27.3587 -23.5647 34.7006 -7.4573 0.0000 0.0000 22.7511 -7.4535 -34.4623 4.2339 7.1250 -0.0000 -0.0000 30.5569 -62.0431 -13.3353
